<?xml version="1.0" encoding="utf-8"?>
<!-- Generator: Adobe Illustrator 21.0.2, SVG Export Plug-In . SVG Version: 6.00 Build 0)  -->
<svg version="1.1" id="Слой_1" xmlns="http://www.w3.org/2000/svg" xmlns:xlink="http://www.w3.org/1999/xlink" x="0px" y="0px"
	 viewBox="0 0 700.7 529.9" style="enable-background:new 0 0 700.7 529.9;" xml:space="preserve">
<style type="text/css">
	.st0{fill:#353535;}
</style>
<title>Ресурс 2</title>
<path class="st0" d="M387,197.8l32-176.1c0.5-2.7-1.3-5.3-4-5.8c-1.9-0.3-3.7,0.4-4.9,1.9L214,278c-1.7,2.2-1.2,5.3,1,7
	c0.9,0.6,1.9,1,3,1h106.3c2.8,0,5,2.2,5,5c0,0.4,0,0.8-0.1,1.1l-48.4,209.3c-0.6,2.7,1.1,5.4,3.8,6c2,0.4,4-0.4,5.2-2l196.9-293.9
	c1.5-2.3,0.9-5.4-1.4-6.9c-0.8-0.5-1.8-0.8-2.8-0.8h-90.7c-2.8,0-5-2.3-5-5C386.9,198.4,386.9,198.1,387,197.8z"/>
<path class="st0" d="M115,272.8v-16c25.2,0,25.8-30.5,25.8-31.8v-80.2c-0.1-20.8,6.6-49.8,25.6-68.7C179,63.4,195.3,57,214.8,57h0.5
	l-0.1,16c-15.3-0.1-27.9,4.8-37.6,14.4c-15.5,15.5-20.9,40.6-20.9,57.4v80.3c0,3.8-0.7,17-8.1,29C141.2,266.3,129.5,272.8,115,272.8
	z M214.8,473c-19.5,0-35.8-6.4-48.5-19.1c-19-18.9-25.6-48-25.6-68.8v-80.2c0-1.2-0.6-31.7-25.8-31.7v-16c14.5,0,26.2,6.5,33.7,18.7
	c7.4,12,8,25.2,8.1,29v80.3c-0.1,16.8,5.4,41.9,20.9,57.4c9.6,9.6,22.1,14.4,37.2,14.4h0.4l0.1,16L214.8,473z"/>
<path class="st0" d="M588.6,272.8c-14.5,0-26.2-6.5-33.7-18.7c-7.4-12-8-25.2-8.1-28.9v-80.3c0.1-16.8-5.3-41.9-20.9-57.4
	c-9.6-9.6-22.1-14.4-37.2-14.4h-0.4l-0.1-16h0.5c19.5,0,35.8,6.4,48.5,19.1c19,18.9,25.7,48,25.6,68.8v80.2
	c0,1.2,0.6,31.7,25.8,31.7L588.6,272.8z M488.8,473h-0.5l0.1-16h0.4c15.1,0,27.6-4.9,37.2-14.4c15.5-15.5,20.9-40.6,20.9-57.4v-80.3
	c0-3.8,0.7-17,8.1-29c7.5-12.2,19.2-18.7,33.7-18.7v16c-25.2,0-25.8,30.5-25.8,31.8v80.2c0.1,20.8-6.6,49.8-25.6,68.7
	C524.6,466.6,508.3,473,488.8,473z"/>
<path class="st0" d="M0,268.7v-8c31.4,0,39.9-31.3,40.1-47.9V108.2C40,83.5,48.1,46.4,71.5,23C87,7.6,106.9-0.2,130.9,0v8
	c-21.7-0.2-39.8,6.8-53.7,20.7C55.5,50.3,48,85,48.1,108.2v104.7C47.9,232.2,37.6,268.7,0,268.7z M130.2,529.9
	c-23.7,0-43.4-7.8-58.7-23c-23.4-23.4-31.5-60.5-31.4-85.2V317c-0.1-16.5-8.7-47.8-40.1-47.8v-8c37.6,0,47.9,36.5,48.1,55.8v104.7
	c-0.1,23.2,7.5,57.9,29.1,79.5c13.9,13.9,32,20.9,53.7,20.7v8H130.2z"/>
<path class="st0" d="M700.7,268.7c-37.6,0-47.9-36.5-48-55.8V108.2c0.1-23.2-7.5-57.9-29.1-79.5C609.7,14.8,591.6,7.8,569.9,8V0h0.7
	c23.6,0,43.4,7.8,58.7,23c23.4,23.3,31.6,60.4,31.5,85.1v104.7c0.1,16.5,8.7,47.8,40,47.8L700.7,268.7z M570.5,529.9h-0.7v-8h0.6
	c21.5,0,39.3-7,53.1-20.7c21.6-21.6,29.2-56.3,29.1-79.5V317c0.2-19.3,10.4-55.8,48-55.8v8c-31.4,0-39.9,31.3-40,47.9v104.7
	c0.1,24.7-8.1,61.8-31.5,85.1C613.9,522.1,594.1,529.9,570.5,529.9z"/>
</svg>
